<?xml version="1.0" encoding="utf-8"?>
<!-- Generator: Adobe Illustrator 16.0.4, SVG Export Plug-In . SVG Version: 6.00 Build 0)  -->
<!DOCTYPE svg PUBLIC "-//W3C//DTD SVG 1.1//EN" "http://www.w3.org/Graphics/SVG/1.1/DTD/svg11.dtd">
<svg version="1.1" id="Logo" xmlns="http://www.w3.org/2000/svg" xmlns:xlink="http://www.w3.org/1999/xlink" x="0px" y="0px"
	 width="400px" height="400px" viewBox="0 0 400 400" enable-background="new 0 0 400 400" xml:space="preserve">
<g>
	<rect fill="none" width="400" height="400"/>
	<path fill="#222222" d="M292.727,180.29c6.336-3.227,12.319-7.326,17.948-12.301l-5.705-26.842
		c-2.98,3.828-5.88,7.174-8.699,10.036c-2.82,2.863-5.622,5.255-8.408,7.178c-4.936,3.712-11.319,6.399-19.151,8.064
		c-15.157,3.222-29.087,0.626-41.791-7.79c-12.705-8.415-20.701-20.359-23.99-35.834c-3.33-15.666-0.924-30.021,7.219-43.067
		c8.065-13.096,19.677-21.254,34.833-24.476c13.755-2.924,28.208-0.371,43.359,7.656l-5.604-26.364
		c-13.885-4.569-27.449-5.447-40.694-2.632c-24.263,5.157-42.121,18.372-53.574,39.642c-8.559,15.984-11.466,32.579-8.751,49.781
		l-52.458-71.713l-39.66,172.263L0,242.511V400h400V157.488L292.727,180.29z M137.476,101.571l32.534,45.5l-44.8,9.522
		L137.476,101.571z M305.959,334.623c-24.263,5.156-45.951,0.347-65.064-14.425c-14.321-11.12-23.727-25.1-28.243-41.918
		l-18.755,86.851L87.599,223.892l23.976-5.097l8.816-39.312l63.14-13.421l23.089,32.531l-95.045,20.203l24.043,32.329l63.14-13.421
		l7.861-39.11l24.357-5.177l-3.208,14.855c6.688-8.151,14.592-14.553,23.705-19.212l-20.497,4.357l-8.972-12.265
		c9.426,4.725,19.249,7.358,29.47,7.908c6.19-3.165,12.927-5.544,20.237-7.098c14.01-2.978,28.147-2.222,42.414,2.268l5.705,26.841
		c-4.279-2.285-8.29-4.162-12.029-5.63c-3.74-1.469-7.273-2.515-10.601-3.138c-6.019-1.384-12.943-1.242-20.776,0.423
		c-15.157,3.222-26.827,11.259-35.009,24.114c-8.185,12.854-10.631,27.02-7.341,42.494c3.329,15.665,11.366,27.8,24.111,36.407
		c12.694,8.684,26.619,11.414,41.776,8.192c13.756-2.924,25.92-11.136,36.497-24.63l5.604,26.363
		C331.239,325.487,319.204,331.808,305.959,334.623z"/>
	<polygon fill="#222222" points="182.916,315.35 194.131,260.551 149.331,270.074 	"/>
</g>
</svg>
